<?xml version="1.0" encoding="UTF-8"?>
<svg width="24px" height="34px" viewBox="0 0 24 34" version="1.1" xmlns="http://www.w3.org/2000/svg" xmlns:xlink="http://www.w3.org/1999/xlink">
    <!-- Generator: Sketch 46.2 (44496) - http://www.bohemiancoding.com/sketch -->
    <title>noun_1045914_cc</title>
    <desc>Created with Sketch.</desc>
    <defs></defs>
    <g id="Page-1" stroke="none" stroke-width="1" fill="none" fill-rule="evenodd">
        <g id="noun_1045914_cc" fill-rule="nonzero" fill="#000000">
            <g id="Group">
                <path d="M4.11238095,16.4639333 C4.42971429,16.1039111 4.39238095,15.5572667 4.02933333,15.2422 C3.66628571,14.9275111 3.11466667,14.9645333 2.79771429,15.3245556 C1.064,17.2912667 0.110857143,19.805 0.114666667,22.4018444 C0.116190476,25.0013333 1.072,27.5158222 2.80647619,29.4810222 C2.97904762,29.6770889 3.22057143,29.7768222 3.464,29.7768222 C3.66780952,29.7768222 3.87314286,29.7058 4.03885714,29.5622444 C4.40190476,29.2479333 4.43809524,28.7001556 4.1207619,28.3408889 C2.66552381,26.6907556 1.86247619,24.5816222 1.86171429,22.4003333 C1.85828571,20.2228222 2.65790476,18.1144444 4.11238095,16.4639333 Z" id="Shape"></path>
                <path d="M6.46590476,27.1697778 C6.67009524,27.1697778 6.87542857,27.0991333 7.0407619,26.9555778 C7.40380952,26.6405111 7.44,26.0938667 7.12304762,25.7338444 C6.30438095,24.8064 5.85371429,23.6224444 5.85371429,22.4007111 C5.85295238,21.1789778 6.30285714,19.9942667 7.12,19.0653111 C7.43695238,18.7049111 7.3992381,18.1578889 7.03619048,17.8435778 C6.67238095,17.5292667 6.1207619,17.5662889 5.80419048,17.9270667 C4.70895238,19.1714667 4.10628571,20.7611556 4.10704762,22.4018444 C4.10704762,24.0425333 4.71085714,25.6307111 5.80838095,26.8743556 C5.98133333,27.0692889 6.22285714,27.1697778 6.46590476,27.1697778 Z" id="Shape"></path>
                <path d="M9.74552381,20.1876889 C9.38209524,19.8741333 8.83009524,19.9122889 8.51390476,20.2730667 C7.99009524,20.8707111 7.70171429,21.6262667 7.70171429,22.4014667 C7.70285714,23.1789333 7.99314286,23.9341111 8.51809524,24.5276 C8.69066667,24.7221556 8.93219048,24.8218889 9.17485714,24.8218889 C9.37942857,24.8218889 9.5847619,24.7508667 9.7512381,24.6065556 C10.1131429,24.2907333 10.1489524,23.7440889 9.83085714,23.3848222 C9.6567619,23.188 9.44914286,22.8574444 9.4487619,22.4003333 C9.4487619,21.9436 9.6567619,21.6096444 9.83238095,21.4094222 C10.1485714,21.0482667 10.1093333,20.5012444 9.74552381,20.1876889 Z" id="Shape"></path>
                <path d="M20.6445714,31.8984222 C20.1321905,32.2837556 20.0327619,33.0083333 20.4213333,33.5160667 C20.6502857,33.8148889 20.9977143,33.9728 21.3497143,33.9728 C21.5950476,33.9728 21.8422857,33.8961111 22.0525714,33.7374444 C23.4929524,32.6543556 24.167619,30.8228889 23.9028571,28.713 C23.8693333,28.4481778 23.544,26.1082222 22.3295238,25.5967111 C21.7150476,25.3364222 21.016381,25.5207778 19.4491429,26.0402222 C19.2255238,26.1146444 18.4887619,26.3182667 18.2994286,26.3662444 C17.6262857,26.5358667 16.2251429,26.8898444 15.7900952,26.6235111 C15.7687619,26.6110444 15.12,24.8521111 15.1131429,24.7875111 C15.1626667,24.7444444 15.816,24.361 15.9942857,24.2650444 C17.5344762,23.4316667 19.6441905,22.2896444 19.4784762,19.7494667 C19.4449524,19.2379556 19.0754286,18.8095556 18.5706667,18.6973556 C17.7485714,18.5145111 16.9066667,18.5662667 16.0914286,18.6172667 C14.9630476,18.6864 14.2255238,18.7034 13.8777143,18.3456444 C13.8582857,18.1983111 13.8434286,17.9482222 13.8339048,17.7710444 C13.7809524,16.8844 13.728,15.9667778 13.0910476,15.4292 C12.6544762,15.0604889 12.1078095,14.8976667 11.6251429,14.7548667 C11.4388571,14.6993333 10.936381,14.4960889 10.840381,14.4462222 C14.0228571,12.4738444 15.3150476,9.75157778 16.2133333,7.06255556 L16.3291429,6.71386667 C16.8373333,5.17291111 17.6049524,2.84542222 19.1352381,2.53111111 C19.7645714,2.40153333 20.1699048,1.79066667 20.0392381,1.1662 C19.9089524,0.541733333 19.2944762,0.141666667 18.663619,0.269733333 C15.8099048,0.855288889 14.7497143,4.07357778 14.1158095,5.99608889 L14.0034286,6.33571111 C12.9977143,9.35 11.6373333,11.6703111 8.2647619,13.2006889 C7.94780952,13.3442444 7.7127619,13.6215333 7.62361905,13.9547333 C7.53409524,14.2886889 7.6007619,14.6445556 7.80419048,14.9248667 C8.29219048,15.5976889 9.08457143,16.1904222 10.1607619,16.6875778 C10.4179048,16.8058222 11.3005714,17.068 11.4419048,17.1224 C11.4769524,17.3384889 11.4967619,17.6796222 11.5093333,17.9051556 C11.5489524,18.581 11.5805714,19.1151778 11.8704762,19.5416889 C12.944,21.1257111 14.7687619,21.0135111 16.2373333,20.9213333 C16.4434286,20.9084889 16.6457143,20.8960222 16.8419048,20.8880889 C16.4887619,21.3270667 14.5009524,22.4418889 14.3184762,22.5457778 C12.6777143,23.4743556 12.5935238,24.5370444 12.9721905,25.8468 C13.0449524,26.0991556 13.9691429,28.2211333 14.5653333,28.5868222 C15.8419048,29.3695778 17.5946667,28.9275778 18.8750476,28.6038222 C19.0460952,28.5607556 19.207619,28.5195778 19.3512381,28.4867111 C19.5409524,28.4436444 19.7801905,28.3654444 20.1874286,28.2298222 C20.4678095,28.1368889 20.952,27.9770889 21.3188571,27.8766 C21.5085714,28.3601556 21.7146667,29.2354667 21.5965714,30.1353333 C21.495619,30.906 21.1748571,31.4991111 20.6445714,31.8984222 Z" id="Shape"></path>
            </g>
        </g>
    </g>
</svg>