<?xml version="1.0" encoding="UTF-8"?>
<svg width="32px" height="27px" viewBox="0 0 32 27" version="1.1" xmlns="http://www.w3.org/2000/svg" xmlns:xlink="http://www.w3.org/1999/xlink">
    <!-- Generator: Sketch 46.2 (44496) - http://www.bohemiancoding.com/sketch -->
    <title>noun_15274_cc</title>
    <desc>Created with Sketch.</desc>
    <defs></defs>
    <g id="Page-1" stroke="none" stroke-width="1" fill="none" fill-rule="evenodd">
        <g id="noun_15274_cc" fill-rule="nonzero" fill="#000000">
            <g id="Group">
                <path d="M12.5521569,0.0916744186 C13.8610196,0.0916744186 14.9847843,1.17167442 14.9847843,2.5285814 C14.9847843,3.89051163 13.8603922,5.01195349 12.5521569,5.01195349 C11.1937255,5.01195349 10.0705882,3.89051163 10.0705882,2.5285814 C10.0705882,1.17230233 11.1937255,0.0916744186 12.5521569,0.0916744186 Z" id="Shape"></path>
                <path d="M10.764549,15.012 L11.9868235,13.0435116 C12.2164706,12.6743023 12.102902,12.1889302 11.7339608,11.9584884 C11.3656471,11.7299302 10.8793725,11.8423256 10.649098,12.2115349 L9.44062745,14.1567907 C8.56533333,13.7266744 7.58588235,13.4780233 6.54682353,13.4780233 C2.93709804,13.4786512 0,16.4367209 0,20.0773256 C0,23.6865349 2.93709804,26.6232558 6.54619608,26.6232558 C10.1803922,26.6232558 13.1388235,23.685907 13.1388235,20.0766977 C13.1388235,18.0422791 12.2139608,16.2226047 10.764549,15.012 Z M6.54619608,25.1526977 C3.74964706,25.1526977 1.4745098,22.8765349 1.4745098,20.0773256 C1.4745098,17.2517442 3.74964706,14.9542326 6.54619608,14.9542326 C7.30039216,14.9542326 8.01003922,15.126907 8.65505882,15.4220233 L6.00345098,19.689907 C5.77380392,20.0597442 5.88737255,20.5451163 6.25631373,20.7749302 C6.38619608,20.8559302 6.52988235,20.8948605 6.67168627,20.8948605 C6.93458824,20.8948605 7.19184314,20.7617442 7.34117647,20.5212558 L9.96705882,16.294186 C11.0017255,17.2316512 11.6649412,18.5734884 11.6649412,20.0773256 C11.6655686,22.8765349 9.36909804,25.1526977 6.54619608,25.1526977 Z" id="Shape"></path>
                <path d="M25.0202353,13.4215116 C21.3847843,13.4215116 18.4276078,16.3613721 18.4276078,19.973093 C18.4276078,23.6086744 21.3847843,26.5692558 25.0202353,26.5692558 C28.6293333,26.5692558 31.5664314,23.6086744 31.5664314,19.973093 C31.5664314,16.3613721 28.6293333,13.4215116 25.0202353,13.4215116 Z M25.0202353,25.0911628 C22.1992157,25.0911628 19.9008627,22.7936512 19.9008627,19.973093 C19.9008627,17.1738837 22.1992157,14.8977209 25.0202353,14.8977209 C27.8174118,14.8977209 30.0944314,17.1738837 30.0944314,19.973093 C30.0944314,22.7936512 27.8174118,25.0911628 25.0202353,25.0911628 Z" id="Shape"></path>
                <path d="M25.2938039,5.53437209 C25.7424314,5.96888372 25.7480784,6.68532558 25.3088627,7.13176744 L24.262902,8.20109302 C23.8261961,8.64753488 23.1121569,8.65569767 22.6672941,8.21867442 L19.0268235,4.65153488 C18.5825882,4.21451163 18.5738039,3.49806977 19.0117647,3.05162791 L20.0596078,1.98355814 C20.4950588,1.53711628 21.2097255,1.52895349 21.657098,1.96472093 L25.2938039,5.53437209 Z" id="Shape"></path>
                <g transform="translate(6.274510, 3.767442)" id="Shape">
                    <path d="M13.9218824,3.25255814 L11.3788235,0.730255814 C11.3788235,0.730255814 10.7701961,-0.0207209302 9.83466667,0.0740930233 C9.83466667,0.0740930233 8.80376471,0.123697674 8.19701961,1.05802326 L5.48078431,5.27253488 L1.40862745,5.27253488 C-0.0420392157,5.27253488 -0.0420392157,7.19455814 1.40862745,7.19455814 L6.13647059,7.19455814 C6.51168627,7.19455814 6.88564706,7.00367442 7.16486275,6.58486047 L8.75921569,4.05565116 L9.28439216,3.25255814 L13.9218824,3.25255814 Z"></path>
                    <path d="M16.5728627,5.88160465 L14.7187451,4.04246512 L8.75921569,4.05565116 L12.0809412,7.33332558 L8.992,8.92695349 C8.992,8.92695349 7.776,9.53602326 7.96235294,10.6141395 L7.96235294,17.5462326 C7.96235294,18.3443023 8.56972549,18.9508605 9.36596078,18.9508605 C10.1163922,18.9508605 10.7708235,18.3443023 10.7708235,17.5462326 L10.7708235,12.0206512 L16.0596078,9.06823256 C16.6701176,8.7392093 17.0917647,8.03909302 17.0917647,7.28623256 C17.0911373,6.77574419 16.9493333,6.25646512 16.5728627,5.88160465 Z"></path>
                </g>
            </g>
        </g>
    </g>
</svg>